<svg width="418" height="333" xmlns="http://www.w3.org/2000/svg" xmlns:xlink="http://www.w3.org/1999/xlink" xml:space="preserve" overflow="hidden"><defs><clipPath id="clip0"><rect x="422" y="117" width="418" height="333"/></clipPath><clipPath id="clip1"><rect x="423" y="118" width="416" height="332"/></clipPath><clipPath id="clip2"><rect x="423" y="117" width="416" height="333"/></clipPath></defs><g clip-path="url(#clip0)" transform="translate(-422 -117)"><g clip-path="url(#clip1)"><g clip-path="url(#clip2)"><path d="M485.638 203.692C485.064 202.54 483.912 201.392 482.186 200.814 449.965 176.074 406.81 160.537 359.05 160.537 300.933 161.115 248.574 184.129 215.2 220.381 214.048 220.955 212.9 222.106 212.322 223.258 189.882 248.577 177.223 279.647 177.223 313.598 177.223 402.208 264.685 414.289 359.625 414.289 454.565 414.289 542.027 402.204 542.027 313.594 542.027 270.439 520.161 231.314 485.639 203.693ZM371.133 260.657C362.504 254.328 353.87 249.15 344.089 244.546 357.323 234.191 371.133 225.558 383.793 218.654 391.848 222.106 399.904 226.136 407.385 230.74 395.3 238.791 383.219 248.576 371.134 260.657ZM238.791 219.229C247.42 211.747 256.628 205.418 266.409 199.666 267.561 200.24 268.709 200.24 269.861 200.24 270.435 200.24 281.947 199.666 299.205 200.24 289.998 206.57 280.791 214.051 271.587 222.106 259.506 220.954 247.999 219.806 238.792 219.228ZM417.741 185.281C409.111 188.733 397.026 193.336 383.215 200.24 372.859 196.211 361.926 193.337 351.566 191.033 372.855 181.826 388.392 178.948 388.965 178.948 398.751 180.103 408.536 182.403 417.74 185.281ZM323.375 186.433C316.471 185.859 309.564 185.281 303.234 184.707 315.893 181.255 328.553 178.377 342.359 177.226 336.611 180.103 330.282 182.977 323.374 186.433ZM326.827 203.117C338.334 204.843 350.994 207.147 363.652 211.173 351.567 218.076 339.486 226.71 327.401 237.065 315.894 232.461 303.809 229.009 292.302 226.71 303.813 217.502 315.32 209.447 326.828 203.117ZM402.782 208.873C421.77 200.244 435.582 196.214 435.582 195.64 437.307 195.066 438.459 194.488 439.611 193.34 447.093 196.792 454.571 200.821 460.9 204.847 451.119 208.299 437.886 212.902 422.923 220.958 416.593 216.928 409.685 212.325 402.782 208.873ZM359.627 398.755C259.506 398.755 192.761 384.37 192.761 314.171 192.761 284.827 204.268 257.783 223.257 235.343 229.012 235.343 241.672 235.343 258.356 237.642 246.271 251.453 235.916 267.564 227.86 286.553 226.134 290.583 227.86 295.183 231.89 296.909 233.042 297.483 234.19 297.483 234.768 297.483 237.645 297.483 241.097 295.757 242.249 292.879 251.456 272.164 263.538 254.901 277.348 240.516 288.855 242.816 300.941 245.694 313.022 249.724 295.186 267.56 278.496 288.849 267.568 315.319 265.842 319.349 267.568 323.949 271.597 325.674 272.749 326.248 273.897 326.248 274.475 326.248 277.353 326.248 280.805 324.523 281.957 321.645 293.464 295.174 310.727 273.312 329.715 256.049 340.07 260.653 350.429 266.404 359.637 272.734 348.703 285.967 338.348 302.078 330.867 321.066 329.141 325.096 330.867 329.696 334.896 331.421 336.048 331.995 337.196 331.995 337.774 331.995 340.652 331.995 344.104 330.269 345.256 327.392 352.737 310.129 361.94 295.744 372.299 283.085 383.806 293.44 393.014 306.099 399.918 321.637 401.07 324.514 403.947 326.24 407.399 326.24 408.551 326.24 409.699 326.24 410.277 325.666 414.307 323.94 416.033 319.337 414.307 315.311 406.825 297.475 395.892 283.09 383.237 271.004 395.896 258.346 408.556 248.564 421.215 241.083 433.873 251.438 444.229 264.675 451.136 281.359 452.288 284.237 455.166 285.963 458.618 285.963 459.77 285.963 460.918 285.963 461.496 285.389 465.525 283.663 467.251 279.06 465.525 275.034 458.044 257.771 447.689 243.965 435.604 232.453 454.018 223.246 469.551 218.643 476.459 216.917 507.505 241.673 526.489 276.198 526.489 314.176 526.489 384.37 459.746 398.755 359.623 398.755Z" fill="#ffffff" fill-rule="nonzero" fill-opacity="1" transform="matrix(1 0 0 1.00005 280.229 0.281951)"/><path d="M512.682 308.415C509.23 308.415 506.926 310.714 506.926 314.17 506.926 369.411 455.142 380.339 376.886 380.339 373.434 380.339 371.13 382.639 371.13 386.095 371.13 389.547 373.43 391.85 376.886 391.85 450.537 391.85 518.434 382.643 518.434 314.169 518.43 310.714 515.556 308.414 512.678 308.414Z" fill="#ffffff" fill-rule="nonzero" fill-opacity="1" transform="matrix(1 0 0 1.00005 280.229 0.281951)"/><path d="M19.2821-1.15594C18.2867-0.642188 17.2471-0.256875 16.1675 0 15.0958 0.2649 13.9721 0.401362 12.7961 0.401362 9.30422 0.401362 6.53881-0.569944 4.49583-2.52064 2.44884-4.47926 1.42936-7.12837 1.42936-10.4677 1.42936-13.8151 2.44883-16.4641 4.49583-18.4148 6.53881-20.3735 9.30422-21.3529 12.7961-21.3529 13.9721-21.3529 15.0959-21.2164 16.1675-20.9515 17.2472-20.6946 18.2867-20.3093 19.2821-19.7956L19.2821-15.4608C18.2746-16.1351 17.2833-16.6327 16.312-16.9538 15.3367-17.2749 14.3092-17.4355 13.2295-17.4355 11.3029-17.4355 9.78571-16.8133 8.68598-15.5731 7.58223-14.3409 7.03232-12.6391 7.03232-10.4677 7.03232-8.30427 7.58219-6.60252 8.68598-5.36223 9.78571-4.13005 11.3029-3.51591 13.2295-3.51591 14.3092-3.51591 15.3367-3.66843 16.312-3.98149 17.2833-4.30259 18.2747-4.80429 19.2821-5.49069Z" fill="#ffffff" fill-rule="nonzero" fill-opacity="1" transform="matrix(1 0 0 1.00005 352.154 662.023)"/><path d="M14.1117-11.4474C13.6622-11.6481 13.2166-11.8006 12.7791-11.8969 12.3497-12.0013 11.9162-12.0575 11.4787-12.0575 10.1823-12.0575 9.18688-11.64 8.4926-10.8051 7.79422-9.97832 7.44907-8.79833 7.44907-7.25708L7.44907-0.000359625 2.42398-0.000359625 2.42398-15.7334 7.44907-15.7334 7.44907-13.1487C8.09126-14.1762 8.82983-14.9227 9.66457-15.3963 10.5074-15.878 11.5149-16.1188 12.6828-16.1188 12.8514-16.1188 13.0361-16.1067 13.2287-16.0867 13.4294-16.0746 13.7184-16.0465 14.0957-16.0064Z" fill="#ffffff" fill-rule="nonzero" fill-opacity="1" transform="matrix(1 0 0 1.00005 373.27 662.023)"/><path d="M18.1261-7.91494 18.1261-6.47007 6.35817-6.47007C6.48661-5.29009 6.91206-4.40705 7.64255-3.82107 8.36902-3.23106 9.39248-2.93806 10.709-2.93806 11.7686-2.93806 12.8483-3.09058 13.952-3.40364 15.0638-3.72473 16.2037-4.19835 17.3716-4.83248L17.3716-0.963323C16.1836-0.513791 14.9955-0.176648 13.8074 0.0481281 12.6195 0.280919 11.4314 0.401331 10.2433 0.401331 7.39359 0.401331 5.17799-0.321125 3.59656-1.76608 2.02325-3.21095 1.23649-5.2379 1.23649-7.85083 1.23649-10.4196 2.01114-12.4344 3.5644-13.9034 5.11366-15.3805 7.24491-16.1189 9.95422-16.1189 12.4266-16.1189 14.4054-15.3684 15.8944-13.8713 17.3795-12.3822 18.126-10.3954 18.126-7.91495ZM12.9566-9.58463C12.9566-10.5359 12.6756-11.3025 12.1217-11.8805 11.5638-12.4665 10.8374-12.7635 9.93829-12.7635 8.96297-12.7635 8.17222-12.4906 7.5622-11.9447 6.95217-11.3988 6.57082-10.6121 6.42229-9.58463Z" fill="#ffffff" fill-rule="nonzero" fill-opacity="1" transform="matrix(1 0 0 1.00005 387.458 662.023)"/><path d="M9.47232-7.0801C8.42078-7.0801 7.63001-6.90349 7.09623-6.5503 6.57043-6.19709 6.30955-5.6713 6.30955-4.97699 6.30955-4.3348 6.52228-3.82906 6.95174-3.46779 7.37719-3.11459 7.9672-2.93799 8.71781-2.93799 9.66905-2.93799 10.4677-3.27514 11.1099-3.94944 11.7601-4.63177 12.0893-5.48268 12.0893-6.50217L12.0893-7.08014ZM17.1465-8.9746 17.1465 0 12.0893 0 12.0893-2.32791C11.415-1.37265 10.6524-0.678253 9.80944-0.240846 8.96256 0.184601 7.93508 0.401342 6.72694 0.401342 5.09743 0.401342 3.77689-0.0682569 2.76141-1.01147 1.74193-1.96271 1.23619-3.19892 1.23619-4.72013 1.23619-6.55843 1.86633-7.90703 3.13069-8.76591 4.40305-9.63287 6.39783-10.0663 9.11907-10.0663L12.0892-10.0663 12.0892-10.4677C12.0892-11.2584 11.7721-11.8363 11.1419-12.2016 10.5078-12.5749 9.52844-12.7635 8.20389-12.7635 7.12019-12.7635 6.11683-12.6551 5.18561-12.4424 4.26246-12.2257 3.40752-11.9046 2.61686-11.4791L2.61686-15.3162C3.68453-15.5731 4.76012-15.7698 5.84383-15.9102 6.93555-16.0467 8.02727-16.119 9.11899-16.119 11.9526-16.119 13.9996-15.557 15.2519-14.4332 16.5123-13.3175 17.1464-11.4992 17.1464-8.97464Z" fill="#ffffff" fill-rule="nonzero" fill-opacity="1" transform="matrix(1 0 0 1.00005 406.969 662.023)"/><path d="M7.91494-20.1966 7.91494-15.7333 13.1006-15.7333 13.1006-12.137 7.91494-12.137 7.91494-5.45829C7.91494-4.7278 8.05943-4.23813 8.34842-3.98126 8.63742-3.72438 9.20735-3.59594 10.0663-3.59594L12.6511-3.59594 12.6511 0.00030825 8.34842 0.00030825C6.35764 0.00030825 4.94483-0.409089 4.10998-1.23588 3.28316-2.07072 2.8738-3.47552 2.8738-5.45829L2.8738-12.137 0.385292-12.137 0.385292-15.7333 2.8738-15.7333 2.8738-20.1966Z" fill="#ffffff" fill-rule="nonzero" fill-opacity="1" transform="matrix(1 0 0 1.00005 426.383 662.023)"/><path d="M18.1261-7.91494 18.1261-6.47007 6.35817-6.47007C6.48661-5.29009 6.91206-4.40705 7.64255-3.82107 8.36902-3.23106 9.39248-2.93806 10.709-2.93806 11.7686-2.93806 12.8483-3.09058 13.952-3.40364 15.0638-3.72473 16.2037-4.19835 17.3716-4.83248L17.3716-0.963323C16.1836-0.513791 14.9955-0.176648 13.8074 0.0481281 12.6195 0.280919 11.4314 0.401331 10.2433 0.401331 7.39359 0.401331 5.17799-0.321125 3.59656-1.76608 2.02325-3.21095 1.23649-5.2379 1.23649-7.85083 1.23649-10.4196 2.01114-12.4344 3.5644-13.9034 5.11366-15.3805 7.24491-16.1189 9.95422-16.1189 12.4266-16.1189 14.4054-15.3684 15.8944-13.8713 17.3795-12.3822 18.126-10.3954 18.126-7.91495ZM12.9566-9.58463C12.9566-10.5359 12.6756-11.3025 12.1217-11.8805 11.5638-12.4665 10.8374-12.7635 9.93829-12.7635 8.96297-12.7635 8.17222-12.4906 7.5622-11.9447 6.95217-11.3988 6.57082-10.6121 6.42229-9.58463Z" fill="#ffffff" fill-rule="nonzero" fill-opacity="1" transform="matrix(1 0 0 1.00005 440.138 662.023)"/><path d="M13.1171-13.4377 13.1171-21.8663 18.1743-21.8663 18.1743-0.00010275 13.1171-0.00010275 13.1171-2.27992C12.4307-1.34875 11.6722-0.666437 10.8373-0.240949 10.0023 0.184539 9.03111 0.401239 7.93138 0.401239 5.99279 0.401239 4.40335-0.369386 3.16316-1.91064 1.91896-3.45189 1.30082-5.43065 1.30082-7.85082 1.30082-10.2791 1.91892-12.2659 3.16316-13.8071 4.40335-15.3484 5.99279-16.119 7.93138-16.119 9.0231-16.119 9.98638-15.8983 10.8212-15.4608 11.6641-15.0193 12.4307-14.345 13.1171-13.4378ZM9.80975-3.24289C10.8774-3.24289 11.6961-3.63222 12.2661-4.41486 12.832-5.20555 13.117-6.34944 13.117-7.85062 13.117-9.34769 12.832-10.4876 12.2661-11.2702 11.6962-12.0609 10.8773-12.4582 9.80975-12.4582 8.73807-12.4582 7.91936-12.0609 7.35341-11.2702 6.78347-10.4876 6.50252-9.34769 6.50252-7.85062 6.50252-6.34954 6.78348-5.20563 7.35341-4.41486 7.91934-3.63219 8.73817-3.24289 9.80975-3.24289Z" fill="#ffffff" fill-rule="nonzero" fill-opacity="1" transform="matrix(1 0 0 1.00005 459.648 662.023)"/><path d="M10.7888-3.243C11.8685-3.243 12.6913-3.63233 13.2611-4.41496 13.8271-5.20566 14.112-6.34954 14.112-7.85072 14.112-9.34779 13.8271-10.4877 13.2611-11.2703 12.6912-12.061 11.8684-12.4583 10.7888-12.4583 9.70505-12.4583 8.87822-12.061 8.30025-11.2703 7.73031-10.4756 7.44936-9.33577 7.44936-7.85072 7.44936-6.36167 7.73032-5.22176 8.30025-4.4311 8.87822-3.63639 9.70505-3.2431 10.7888-3.2431ZM7.44938-13.4378C8.14374-14.3448 8.91038-15.0192 9.74523-15.4607 10.5881-15.8982 11.5594-16.1189 12.6511-16.1189 14.5977-16.1189 16.1911-15.3483 17.4353-13.8071 18.6755-12.2658 19.2977-10.279 19.2977-7.85074 19.2977-5.43046 18.6756-3.45181 17.4353-1.91055 16.1911-0.369304 14.5977 0.401321 12.6511 0.401321 11.5594 0.401321 10.5881 0.18458 9.74523-0.240867 8.91038-0.678356 8.14376-1.35663 7.44938-2.27984L7.44938-2.055e-05 2.42428-2.055e-05 2.42428-21.8663 7.44938-21.8663Z" fill="#ffffff" fill-rule="nonzero" fill-opacity="1" transform="matrix(1 0 0 1.00005 490.26 662.023)"/><path d="M0.353203-15.7331 5.3783-15.7331 9.61674-5.05633 13.213-15.7331 18.2381-15.7331 11.6235 1.49399C10.9573 3.23591 10.1827 4.45606 9.29564 5.15446 8.4046 5.86086 7.24064 6.21401 5.79577 6.21401L2.87376 6.21401 2.87376 2.9067 4.44707 2.9067C5.30198 2.9067 5.92411 2.76622 6.30942 2.48927 6.70276 2.22036 7.0078 1.73872 7.22453 1.0444L7.36902 0.610921Z" fill="#ffffff" fill-rule="nonzero" fill-opacity="1" transform="matrix(1 0 0 1.00005 510.854 662.023)"/><path d="M17.2425-20.3096 17.2425-15.8785C16.0865-16.3922 14.9547-16.7775 13.8549-17.0344 12.7632-17.2993 11.7277-17.4358 10.7564-17.4358 9.47201-17.4358 8.51675-17.2511 7.89871-16.8899 7.27658-16.5367 6.96753-15.9828 6.96753-15.2363 6.96753-14.6784 7.17624-14.2409 7.59367-13.9198 8.01109-13.6068 8.76564-13.3419 9.85736-13.1171L12.1692-12.6515C14.5011-12.1899 16.1548-11.4795 17.1301-10.5163 18.1135-9.56101 18.6071-8.20839 18.6071-6.45445 18.6071-4.14257 17.9208-2.41668 16.5521-1.28489 15.1795-0.161009 13.0883 0.400828 10.2747 0.400828 8.93415 0.400828 7.59758 0.27239 6.26111 0.0155153 4.92053-0.229318 3.58395-0.598581 2.24748-1.09223L2.24748-5.6678C3.58406-4.94935 4.88045-4.40746 6.13267-4.0463 7.38498-3.69309 8.58901-3.5165 9.74495-3.5165 10.9329-3.5165 11.8361-3.70915 12.4582-4.09447 13.0883-4.4878 13.4054-5.05775 13.4054-5.79621 13.4054-6.44642 13.1887-6.95215 12.7632-7.30541 12.3337-7.65861 11.4828-7.9797 10.2105-8.26869L8.12343-8.71822C6.02425-9.16775 4.487-9.88217 3.51571-10.8696 2.55242-11.8529 2.07083-13.1815 2.07083-14.8512 2.07083-16.9382 2.74513-18.5438 4.09378-19.6676 5.44242-20.7913 7.37695-21.3533 9.90553-21.3533 11.0615-21.3533 12.2414-21.265 13.4536-21.0964 14.6737-20.9238 15.9341-20.6629 17.2425-20.3097Z" fill="#ffffff" fill-rule="nonzero" fill-opacity="1" transform="matrix(1 0 0 1.00005 539.625 662.023)"/><path d="M2.24766-6.13295 2.24766-15.7337 7.30491-15.7337 7.30491-14.1604C7.30491-13.3015 7.29688-12.2338 7.28886-10.9495 7.27682-9.66508 7.2728-8.80619 7.2728-8.3807 7.2728-7.10434 7.30491-6.18925 7.36913-5.63533 7.44138-5.07743 7.55376-4.67606 7.70627-4.4312 7.919-4.09806 8.19193-3.84119 8.52507-3.66057 8.85419-3.48798 9.23549-3.4037 9.66498-3.4037 10.7125-3.4037 11.5353-3.80506 12.1374-4.60783 12.7354-5.41056 13.0364-6.52637 13.0364-7.96323L13.0364-15.7337 18.0615-15.7337 18.0615-0.0006165 13.0364-0.0006165 13.0364-2.28043C12.2738-1.35729 11.4711-0.678972 10.6282-0.241463 9.78127 0.183984 8.84606 0.400725 7.81856 0.400725 6.00841 0.400725 4.62766-0.153159 3.6765-1.26896 2.72124-2.38072 2.24766-4.00232 2.24766-6.13356Z" fill="#ffffff" fill-rule="nonzero" fill-opacity="1" transform="matrix(1 0 0 1.00005 560.343 662.023)"/><path d="M17.0021-13.1171C17.6322-14.0884 18.3868-14.8349 19.2657-15.3487 20.1407-15.8624 21.104-16.1193 22.1556-16.1193 23.9617-16.1193 25.3385-15.5574 26.2816-14.4336 27.2329-13.3178 27.7105-11.7044 27.7105-9.58504L27.7105-0.000411 22.6532-0.000411 22.6532-8.20439 22.6532-8.57365C22.6612-8.71011 22.6693-8.90277 22.6693-9.15162 22.6693-10.2634 22.5007-11.0662 22.1716-11.5599 21.8505-12.0616 21.3247-12.3145 20.5982-12.3145 19.643-12.3145 18.9045-11.9171 18.3827-11.1265 17.857-10.3438 17.588-9.2079 17.58-7.72286L17.58-0.0005754 12.5228-0.0005754 12.5228-8.20455C12.5228-9.94647 12.3702-11.0663 12.0732-11.56 11.7722-12.0617 11.2384-12.3145 10.4678-12.3145 9.50448-12.3145 8.7579-11.9172 8.23613-11.1265 7.71034-10.3439 7.44946-9.216 7.44946-7.73897L7.44946-0.0006576 2.3922-0.0006576 2.3922-15.7337 7.44946-15.7337 7.44946-13.4379C8.06756-14.3249 8.77401-14.9952 9.56868-15.4447 10.3714-15.8942 11.2544-16.119 12.2177-16.119 13.3094-16.119 14.2727-15.8541 15.1075-15.3323 15.9424-14.8065 16.5725-14.068 17.002-13.1168Z" fill="#ffffff" fill-rule="nonzero" fill-opacity="1" transform="matrix(1 0 0 1.00005 580.825 662.023)"/><path d="M9.47232-7.0801C8.42078-7.0801 7.63001-6.90349 7.09623-6.5503 6.57043-6.19709 6.30955-5.6713 6.30955-4.97699 6.30955-4.3348 6.52228-3.82906 6.95174-3.46779 7.37719-3.11459 7.9672-2.93799 8.71781-2.93799 9.66905-2.93799 10.4677-3.27514 11.1099-3.94944 11.7601-4.63177 12.0893-5.48268 12.0893-6.50217L12.0893-7.08014ZM17.1465-8.9746 17.1465 0 12.0893 0 12.0893-2.32791C11.415-1.37265 10.6524-0.678253 9.80944-0.240846 8.96256 0.184601 7.93508 0.401342 6.72694 0.401342 5.09743 0.401342 3.77689-0.0682569 2.76141-1.01147 1.74193-1.96271 1.23619-3.19892 1.23619-4.72013 1.23619-6.55843 1.86633-7.90703 3.13069-8.76591 4.40305-9.63287 6.39783-10.0663 9.11907-10.0663L12.0892-10.0663 12.0892-10.4677C12.0892-11.2584 11.7721-11.8363 11.1419-12.2016 10.5078-12.5749 9.52844-12.7635 8.20389-12.7635 7.12019-12.7635 6.11683-12.6551 5.18561-12.4424 4.26246-12.2257 3.40752-11.9046 2.61686-11.4791L2.61686-15.3162C3.68453-15.5731 4.76012-15.7698 5.84383-15.9102 6.93555-16.0467 8.02727-16.119 9.11899-16.119 11.9526-16.119 13.9996-15.557 15.2519-14.4332 16.5123-13.3175 17.1464-11.4992 17.1464-8.97464Z" fill="#ffffff" fill-rule="nonzero" fill-opacity="1" transform="matrix(1 0 0 1.00005 610.803 662.023)"/><path d="M18.2381-9.58463 18.2381 0 13.1809 0 13.1809-7.33697C13.1809-8.69358 13.1488-9.63282 13.0846-10.1466 13.0203-10.6603 12.912-11.0376 12.7635-11.2865 12.5708-11.6076 12.3019-11.8564 11.9607-12.0411 11.6276-12.2217 11.2463-12.314 10.8208-12.314 9.76927-12.314 8.94645-11.9046 8.34844-11.0938 7.74639-10.2911 7.44938-9.17126 7.44938-7.73841L7.44938-0.00010275 2.42428-0.00010275 2.42428-15.7332 7.44938-15.7332 7.44938-13.4373C8.20796-14.3444 9.01067-15.0188 9.85763-15.4603 10.7125-15.8978 11.6558-16.1185 12.6833-16.1185 14.5014-16.1185 15.8822-15.5566 16.8253-14.4328 17.7645-13.317 18.2381-11.7036 18.2381-9.58424Z" fill="#ffffff" fill-rule="nonzero" fill-opacity="1" transform="matrix(1 0 0 1.00005 630.217 662.023)"/><path d="M9.47232-7.0801C8.42078-7.0801 7.63001-6.90349 7.09623-6.5503 6.57043-6.19709 6.30955-5.6713 6.30955-4.97699 6.30955-4.3348 6.52228-3.82906 6.95174-3.46779 7.37719-3.11459 7.9672-2.93799 8.71781-2.93799 9.66905-2.93799 10.4677-3.27514 11.1099-3.94944 11.7601-4.63177 12.0893-5.48268 12.0893-6.50217L12.0893-7.08014ZM17.1465-8.9746 17.1465 0 12.0893 0 12.0893-2.32791C11.415-1.37265 10.6524-0.678253 9.80944-0.240846 8.96256 0.184601 7.93508 0.401342 6.72694 0.401342 5.09743 0.401342 3.77689-0.0682569 2.76141-1.01147 1.74193-1.96271 1.23619-3.19892 1.23619-4.72013 1.23619-6.55843 1.86633-7.90703 3.13069-8.76591 4.40305-9.63287 6.39783-10.0663 9.11907-10.0663L12.0892-10.0663 12.0892-10.4677C12.0892-11.2584 11.7721-11.8363 11.1419-12.2016 10.5078-12.5749 9.52844-12.7635 8.20389-12.7635 7.12019-12.7635 6.11683-12.6551 5.18561-12.4424 4.26246-12.2257 3.40752-11.9046 2.61686-11.4791L2.61686-15.3162C3.68453-15.5731 4.76012-15.7698 5.84383-15.9102 6.93555-16.0467 8.02727-16.119 9.11899-16.119 11.9526-16.119 13.9996-15.557 15.2519-14.4332 16.5123-13.3175 17.1464-11.4992 17.1464-8.97464Z" fill="#ffffff" fill-rule="nonzero" fill-opacity="1" transform="matrix(1 0 0 1.00005 650.699 662.023)"/><path d="M19.2821-1.15594C18.2867-0.642188 17.2471-0.256875 16.1675 0 15.0958 0.2649 13.9721 0.401362 12.7961 0.401362 9.30422 0.401362 6.53881-0.569944 4.49583-2.52064 2.44884-4.47926 1.42936-7.12837 1.42936-10.4677 1.42936-13.8151 2.44883-16.4641 4.49583-18.4148 6.53881-20.3735 9.30422-21.3529 12.7961-21.3529 13.9721-21.3529 15.0959-21.2164 16.1675-20.9515 17.2472-20.6946 18.2867-20.3093 19.2821-19.7956L19.2821-15.4608C18.2746-16.1351 17.2833-16.6327 16.312-16.9538 15.3367-17.2749 14.3092-17.4355 13.2295-17.4355 11.3029-17.4355 9.78571-16.8133 8.68598-15.5731 7.58223-14.3409 7.03232-12.6391 7.03232-10.4677 7.03232-8.30427 7.58219-6.60252 8.68598-5.36223 9.78571-4.13005 11.3029-3.51591 13.2295-3.51591 14.3092-3.51591 15.3367-3.66843 16.312-3.98149 17.2833-4.30259 18.2747-4.80429 19.2821-5.49069Z" fill="#ffffff" fill-rule="nonzero" fill-opacity="1" transform="matrix(1 0 0 1.00005 680.127 662.023)"/><path d="M18.2381-9.58463 18.2381 0 13.1809 0 13.1809-7.30491C13.1809-8.68567 13.1488-9.63282 13.0846-10.1466 13.0203-10.6603 12.912-11.0376 12.7635-11.2865 12.5708-11.6076 12.3019-11.8564 11.9607-12.0411 11.6276-12.2217 11.2463-12.314 10.8208-12.314 9.76927-12.314 8.94645-11.9046 8.34844-11.0938 7.74639-10.2911 7.44938-9.17126 7.44938-7.73841L7.44938-0.00010275 2.42428-0.00010275 2.42428-21.8663 7.44938-21.8663 7.44938-13.4377C8.20796-14.3447 9.01067-15.0191 9.85763-15.4606 10.7125-15.8981 11.6558-16.1188 12.6833-16.1188 14.5014-16.1188 15.8822-15.5569 16.8253-14.4331 17.7645-13.3174 18.2381-11.7039 18.2381-9.58455Z" fill="#ffffff" fill-rule="nonzero" fill-opacity="1" transform="matrix(1 0 0 1.00005 701.243 662.023)"/><path d="M9.47232-7.0801C8.42078-7.0801 7.63001-6.90349 7.09623-6.5503 6.57043-6.19709 6.30955-5.6713 6.30955-4.97699 6.30955-4.3348 6.52228-3.82906 6.95174-3.46779 7.37719-3.11459 7.9672-2.93799 8.71781-2.93799 9.66905-2.93799 10.4677-3.27514 11.1099-3.94944 11.7601-4.63177 12.0893-5.48268 12.0893-6.50217L12.0893-7.08014ZM17.1465-8.9746 17.1465 0 12.0893 0 12.0893-2.32791C11.415-1.37265 10.6524-0.678253 9.80944-0.240846 8.96256 0.184601 7.93508 0.401342 6.72694 0.401342 5.09743 0.401342 3.77689-0.0682569 2.76141-1.01147 1.74193-1.96271 1.23619-3.19892 1.23619-4.72013 1.23619-6.55843 1.86633-7.90703 3.13069-8.76591 4.40305-9.63287 6.39783-10.0663 9.11907-10.0663L12.0892-10.0663 12.0892-10.4677C12.0892-11.2584 11.7721-11.8363 11.1419-12.2016 10.5078-12.5749 9.52844-12.7635 8.20389-12.7635 7.12019-12.7635 6.11683-12.6551 5.18561-12.4424 4.26246-12.2257 3.40752-11.9046 2.61686-11.4791L2.61686-15.3162C3.68453-15.5731 4.76012-15.7698 5.84383-15.9102 6.93555-16.0467 8.02727-16.119 9.11899-16.119 11.9526-16.119 13.9996-15.557 15.2519-14.4332 16.5123-13.3175 17.1464-11.4992 17.1464-8.97464Z" fill="#ffffff" fill-rule="nonzero" fill-opacity="1" transform="matrix(1 0 0 1.00005 721.725 662.023)"/><path d="M17.0021-13.1171C17.6322-14.0884 18.3868-14.8349 19.2657-15.3487 20.1407-15.8624 21.104-16.1193 22.1556-16.1193 23.9617-16.1193 25.3385-15.5574 26.2816-14.4336 27.2329-13.3178 27.7105-11.7044 27.7105-9.58504L27.7105-0.000411 22.6532-0.000411 22.6532-8.20439 22.6532-8.57365C22.6612-8.71011 22.6693-8.90277 22.6693-9.15162 22.6693-10.2634 22.5007-11.0662 22.1716-11.5599 21.8505-12.0616 21.3247-12.3145 20.5982-12.3145 19.643-12.3145 18.9045-11.9171 18.3827-11.1265 17.857-10.3438 17.588-9.2079 17.58-7.72286L17.58-0.0005754 12.5228-0.0005754 12.5228-8.20455C12.5228-9.94647 12.3702-11.0663 12.0732-11.56 11.7722-12.0617 11.2384-12.3145 10.4678-12.3145 9.50448-12.3145 8.7579-11.9172 8.23613-11.1265 7.71034-10.3439 7.44946-9.216 7.44946-7.73897L7.44946-0.0006576 2.3922-0.0006576 2.3922-15.7337 7.44946-15.7337 7.44946-13.4379C8.06756-14.3249 8.77401-14.9952 9.56868-15.4447 10.3714-15.8942 11.2544-16.119 12.2177-16.119 13.3094-16.119 14.2727-15.8541 15.1075-15.3323 15.9424-14.8065 16.5725-14.068 17.002-13.1168Z" fill="#ffffff" fill-rule="nonzero" fill-opacity="1" transform="matrix(1 0 0 1.00005 741.139 662.023)"/><path d="M14.1117-11.4474C13.6622-11.6481 13.2166-11.8006 12.7791-11.8969 12.3497-12.0013 11.9162-12.0575 11.4787-12.0575 10.1823-12.0575 9.18688-11.64 8.4926-10.8051 7.79422-9.97832 7.44907-8.79833 7.44907-7.25708L7.44907-0.000359625 2.42398-0.000359625 2.42398-15.7334 7.44907-15.7334 7.44907-13.1487C8.09126-14.1762 8.82983-14.9227 9.66457-15.3963 10.5074-15.878 11.5149-16.1188 12.6828-16.1188 12.8514-16.1188 13.0361-16.1067 13.2287-16.0867 13.4294-16.0746 13.7184-16.0465 14.0957-16.0064Z" fill="#ffffff" fill-rule="nonzero" fill-opacity="1" transform="matrix(1 0 0 1.00005 771.117 662.023)"/><path d="M2.24766-6.13295 2.24766-15.7337 7.30491-15.7337 7.30491-14.1604C7.30491-13.3015 7.29688-12.2338 7.28886-10.9495 7.27682-9.66508 7.2728-8.80619 7.2728-8.3807 7.2728-7.10434 7.30491-6.18925 7.36913-5.63533 7.44138-5.07743 7.55376-4.67606 7.70627-4.4312 7.919-4.09806 8.19193-3.84119 8.52507-3.66057 8.85419-3.48798 9.23549-3.4037 9.66498-3.4037 10.7125-3.4037 11.5353-3.80506 12.1374-4.60783 12.7354-5.41056 13.0364-6.52637 13.0364-7.96323L13.0364-15.7337 18.0615-15.7337 18.0615-0.0006165 13.0364-0.0006165 13.0364-2.28043C12.2738-1.35729 11.4711-0.678972 10.6282-0.241463 9.78127 0.183984 8.84606 0.400725 7.81856 0.400725 6.00841 0.400725 4.62766-0.153159 3.6765-1.26896 2.72124-2.38072 2.24766-4.00232 2.24766-6.13356Z" fill="#ffffff" fill-rule="nonzero" fill-opacity="1" transform="matrix(1 0 0 1.00005 785.305 662.023)"/><path d="M18.2381-9.58463 18.2381 0 13.1809 0 13.1809-7.33697C13.1809-8.69358 13.1488-9.63282 13.0846-10.1466 13.0203-10.6603 12.912-11.0376 12.7635-11.2865 12.5708-11.6076 12.3019-11.8564 11.9607-12.0411 11.6276-12.2217 11.2463-12.314 10.8208-12.314 9.76927-12.314 8.94645-11.9046 8.34844-11.0938 7.74639-10.2911 7.44938-9.17126 7.44938-7.73841L7.44938-0.00010275 2.42428-0.00010275 2.42428-15.7332 7.44938-15.7332 7.44938-13.4373C8.20796-14.3444 9.01067-15.0188 9.85763-15.4603 10.7125-15.8978 11.6558-16.1185 12.6833-16.1185 14.5014-16.1185 15.8822-15.5566 16.8253-14.4328 17.7645-13.317 18.2381-11.7036 18.2381-9.58424Z" fill="#ffffff" fill-rule="nonzero" fill-opacity="1" transform="matrix(1 0 0 1.00005 805.787 662.023)"/><path d="M1.01145-15.7331 5.90811-15.7331 8.54108-4.89604 11.1901-15.7331 15.3965-15.7331 18.0455-5.00804 20.6945-15.7331 25.5751-15.7331 21.433 0 15.9423 0 13.2933-10.8206 10.6443 0 5.15351 0Z" fill="#ffffff" fill-rule="nonzero" fill-opacity="1" transform="matrix(1 0 0 1.00005 826.269 662.023)"/><path d="M9.90572-12.5232C8.78996-12.5232 7.93898-12.1218 7.353-11.319 6.76299-10.5163 6.46999-9.36043 6.46999-7.85123 6.46999-6.34204 6.76299-5.1861 7.353-4.38342 7.93899-3.58871 8.78986-3.19542 9.90572-3.19542 10.9974-3.19542 11.8323-3.58876 12.4103-4.38342 12.9962-5.18615 13.2933-6.34204 13.2933-7.85123 13.2933-9.36043 12.9963-10.5164 12.4103-11.319 11.8323-12.1218 10.9974-12.5232 9.90572-12.5232ZM9.90572-16.1194C12.6109-16.1194 14.7261-15.3849 16.2474-13.92 17.7646-12.463 18.5272-10.4401 18.5272-7.85134 18.5272-5.27056 17.7646-3.24762 16.2474-1.78271 14.7261-0.325718 12.6109 0.400725 9.90572 0.400725 7.18449 0.400725 5.06126-0.325749 3.53203-1.78271 1.9988-3.24772 1.23619-5.27056 1.23619-7.85134 1.23619-10.4401 1.99879-12.4631 3.53203-13.92 5.06126-15.385 7.18449-16.1194 9.90572-16.1194Z" fill="#ffffff" fill-rule="nonzero" fill-opacity="1" transform="matrix(1 0 0 1.00005 852.848 662.023)"/><path d="M14.1117-11.4474C13.6622-11.6481 13.2166-11.8006 12.7791-11.8969 12.3497-12.0013 11.9162-12.0575 11.4787-12.0575 10.1823-12.0575 9.18688-11.64 8.4926-10.8051 7.79422-9.97832 7.44907-8.79833 7.44907-7.25708L7.44907-0.000359625 2.42398-0.000359625 2.42398-15.7334 7.44907-15.7334 7.44907-13.1487C8.09126-14.1762 8.82983-14.9227 9.66457-15.3963 10.5074-15.878 11.5149-16.1188 12.6828-16.1188 12.8514-16.1188 13.0361-16.1067 13.2287-16.0867 13.4294-16.0746 13.7184-16.0465 14.0957-16.0064Z" fill="#ffffff" fill-rule="nonzero" fill-opacity="1" transform="matrix(1 0 0 1.00005 872.615 662.023)"/><path d="M9.47232-7.0801C8.42078-7.0801 7.63001-6.90349 7.09623-6.5503 6.57043-6.19709 6.30955-5.6713 6.30955-4.97699 6.30955-4.3348 6.52228-3.82906 6.95174-3.46779 7.37719-3.11459 7.9672-2.93799 8.71781-2.93799 9.66905-2.93799 10.4677-3.27514 11.1099-3.94944 11.7601-4.63177 12.0893-5.48268 12.0893-6.50217L12.0893-7.08014ZM17.1465-8.9746 17.1465 0 12.0893 0 12.0893-2.32791C11.415-1.37265 10.6524-0.678253 9.80944-0.240846 8.96256 0.184601 7.93508 0.401342 6.72694 0.401342 5.09743 0.401342 3.77689-0.0682569 2.76141-1.01147 1.74193-1.96271 1.23619-3.19892 1.23619-4.72013 1.23619-6.55843 1.86633-7.90703 3.13069-8.76591 4.40305-9.63287 6.39783-10.0663 9.11907-10.0663L12.0892-10.0663 12.0892-10.4677C12.0892-11.2584 11.7721-11.8363 11.1419-12.2016 10.5078-12.5749 9.52844-12.7635 8.20389-12.7635 7.12019-12.7635 6.11683-12.6551 5.18561-12.4424 4.26246-12.2257 3.40752-11.9046 2.61686-11.4791L2.61686-15.3162C3.68453-15.5731 4.76012-15.7698 5.84383-15.9102 6.93555-16.0467 8.02727-16.119 9.11899-16.119 11.9526-16.119 13.9996-15.557 15.2519-14.4332 16.5123-13.3175 17.1464-11.4992 17.1464-8.97464Z" fill="#ffffff" fill-rule="nonzero" fill-opacity="1" transform="matrix(1 0 0 1.00005 886.799 662.023)"/><path d="M2.42428-21.8662 7.44938-21.8662 7.44938-9.9534 13.2291-15.7331 19.073-15.7331 11.3988-8.50853 19.683 0.000411 13.5822 0.000411 7.44928-6.56593 7.44928 0.000411 2.42418 0.000411Z" fill="#ffffff" fill-rule="nonzero" fill-opacity="1" transform="matrix(1 0 0 1.00005 906.217 662.023)"/><path d="M2.42428-15.7331 7.44938-15.7331 7.44938 0 2.42428 0ZM2.42428-21.866 7.44938-21.866 7.44938-17.756 2.42428-17.756Z" fill="#ffffff" fill-rule="nonzero" fill-opacity="1" transform="matrix(1 0 0 1.00005 925.347 662.023)"/><path d="M9.47232-7.0801C8.42078-7.0801 7.63001-6.90349 7.09623-6.5503 6.57043-6.19709 6.30955-5.6713 6.30955-4.97699 6.30955-4.3348 6.52228-3.82906 6.95174-3.46779 7.37719-3.11459 7.9672-2.93799 8.71781-2.93799 9.66905-2.93799 10.4677-3.27514 11.1099-3.94944 11.7601-4.63177 12.0893-5.48268 12.0893-6.50217L12.0893-7.08014ZM17.1465-8.9746 17.1465 0 12.0893 0 12.0893-2.32791C11.415-1.37265 10.6524-0.678253 9.80944-0.240846 8.96256 0.184601 7.93508 0.401342 6.72694 0.401342 5.09743 0.401342 3.77689-0.0682569 2.76141-1.01147 1.74193-1.96271 1.23619-3.19892 1.23619-4.72013 1.23619-6.55843 1.86633-7.90703 3.13069-8.76591 4.40305-9.63287 6.39783-10.0663 9.11907-10.0663L12.0892-10.0663 12.0892-10.4677C12.0892-11.2584 11.7721-11.8363 11.1419-12.2016 10.5078-12.5749 9.52844-12.7635 8.20389-12.7635 7.12019-12.7635 6.11683-12.6551 5.18561-12.4424 4.26246-12.2257 3.40752-11.9046 2.61686-11.4791L2.61686-15.3162C3.68453-15.5731 4.76012-15.7698 5.84383-15.9102 6.93555-16.0467 8.02727-16.119 9.11899-16.119 11.9526-16.119 13.9996-15.557 15.2519-14.4332 16.5123-13.3175 17.1464-11.4992 17.1464-8.97464Z" fill="#ffffff" fill-rule="nonzero" fill-opacity="1" transform="matrix(1 0 0 1.00005 935.212 662.023)"/><path d="M7.91494-20.1966 7.91494-15.7333 13.1006-15.7333 13.1006-12.137 7.91494-12.137 7.91494-5.45829C7.91494-4.7278 8.05943-4.23813 8.34842-3.98126 8.63742-3.72438 9.20735-3.59594 10.0663-3.59594L12.6511-3.59594 12.6511 0.00030825 8.34842 0.00030825C6.35764 0.00030825 4.94483-0.409089 4.10998-1.23588 3.28316-2.07072 2.8738-3.47552 2.8738-5.45829L2.8738-12.137 0.385292-12.137 0.385292-15.7333 2.8738-15.7333 2.8738-20.1966Z" fill="#ffffff" fill-rule="nonzero" fill-opacity="1" transform="matrix(1 0 0 1.00005 954.622 662.023)"/><path d="M12.7636-21.8662 12.7636-18.5589 9.98617-18.5589C9.27977-18.5589 8.78205-18.4305 8.49311-18.1736 8.21215-17.9167 8.07569-17.4672 8.07569-16.825L8.07569-15.7333 12.3784-15.7333 12.3784-12.137 8.07569-12.137 8.07569-0.0002055 3.0506-0.0002055 3.0506-12.137 0.546065-12.137 0.546065-15.7333 3.0506-15.7333 3.0506-16.825C3.0506-18.5349 3.52421-19.8031 4.47944-20.6299 5.43068-21.4528 6.91174-21.8661 8.92656-21.8661Z" fill="#ffffff" fill-rule="nonzero" fill-opacity="1" transform="matrix(1 0 0 1.00005 352.154 690.795)"/><path d="M14.1117-11.4474C13.6622-11.6481 13.2166-11.8006 12.7791-11.8969 12.3497-12.0013 11.9162-12.0575 11.4787-12.0575 10.1823-12.0575 9.18688-11.64 8.4926-10.8051 7.79422-9.97832 7.44907-8.79833 7.44907-7.25708L7.44907-0.000359625 2.42398-0.000359625 2.42398-15.7334 7.44907-15.7334 7.44907-13.1487C8.09126-14.1762 8.82983-14.9227 9.66457-15.3963 10.5074-15.878 11.5149-16.1188 12.6828-16.1188 12.8514-16.1188 13.0361-16.1067 13.2287-16.0867 13.4294-16.0746 13.7184-16.0465 14.0957-16.0064Z" fill="#ffffff" fill-rule="nonzero" fill-opacity="1" transform="matrix(1 0 0 1.00005 364.672 690.795)"/><path d="M9.90572-12.5232C8.78996-12.5232 7.93898-12.1218 7.353-11.319 6.76299-10.5163 6.46999-9.36043 6.46999-7.85123 6.46999-6.34204 6.76299-5.1861 7.353-4.38342 7.93899-3.58871 8.78986-3.19542 9.90572-3.19542 10.9974-3.19542 11.8323-3.58876 12.4103-4.38342 12.9962-5.18615 13.2933-6.34204 13.2933-7.85123 13.2933-9.36043 12.9963-10.5164 12.4103-11.319 11.8323-12.1218 10.9974-12.5232 9.90572-12.5232ZM9.90572-16.1194C12.6109-16.1194 14.7261-15.3849 16.2474-13.92 17.7646-12.463 18.5272-10.4401 18.5272-7.85134 18.5272-5.27056 17.7646-3.24762 16.2474-1.78271 14.7261-0.325718 12.6109 0.400725 9.90572 0.400725 7.18449 0.400725 5.06126-0.325749 3.53203-1.78271 1.9988-3.24772 1.23619-5.27056 1.23619-7.85134 1.23619-10.4401 1.99879-12.4631 3.53203-13.92 5.06126-15.385 7.18449-16.1194 9.90572-16.1194Z" fill="#ffffff" fill-rule="nonzero" fill-opacity="1" transform="matrix(1 0 0 1.00005 378.861 690.795)"/><path d="M17.0021-13.1171C17.6322-14.0884 18.3868-14.8349 19.2657-15.3487 20.1407-15.8624 21.104-16.1193 22.1556-16.1193 23.9617-16.1193 25.3385-15.5574 26.2816-14.4336 27.2329-13.3178 27.7105-11.7044 27.7105-9.58504L27.7105-0.000411 22.6532-0.000411 22.6532-8.20439 22.6532-8.57365C22.6612-8.71011 22.6693-8.90277 22.6693-9.15162 22.6693-10.2634 22.5007-11.0662 22.1716-11.5599 21.8505-12.0616 21.3247-12.3145 20.5982-12.3145 19.643-12.3145 18.9045-11.9171 18.3827-11.1265 17.857-10.3438 17.588-9.2079 17.58-7.72286L17.58-0.0005754 12.5228-0.0005754 12.5228-8.20455C12.5228-9.94647 12.3702-11.0663 12.0732-11.56 11.7722-12.0617 11.2384-12.3145 10.4678-12.3145 9.50448-12.3145 8.7579-11.9172 8.23613-11.1265 7.71034-10.3439 7.44946-9.216 7.44946-7.73897L7.44946-0.0006576 2.3922-0.0006576 2.3922-15.7337 7.44946-15.7337 7.44946-13.4379C8.06756-14.3249 8.77401-14.9952 9.56868-15.4447 10.3714-15.8942 11.2544-16.119 12.2177-16.119 13.3094-16.119 14.2727-15.8541 15.1075-15.3323 15.9424-14.8065 16.5725-14.068 17.002-13.1168Z" fill="#ffffff" fill-rule="nonzero" fill-opacity="1" transform="matrix(1 0 0 1.00005 398.624 690.795)"/><path d="M7.91494-20.1966 7.91494-15.7333 13.1006-15.7333 13.1006-12.137 7.91494-12.137 7.91494-5.45829C7.91494-4.7278 8.05943-4.23813 8.34842-3.98126 8.63742-3.72438 9.20735-3.59594 10.0663-3.59594L12.6511-3.59594 12.6511 0.00030825 8.34842 0.00030825C6.35764 0.00030825 4.94483-0.409089 4.10998-1.23588 3.28316-2.07072 2.8738-3.47552 2.8738-5.45829L2.8738-12.137 0.385292-12.137 0.385292-15.7333 2.8738-15.7333 2.8738-20.1966Z" fill="#ffffff" fill-rule="nonzero" fill-opacity="1" transform="matrix(1 0 0 1.00005 438.62 690.795)"/><path d="M18.2381-9.58463 18.2381 0 13.1809 0 13.1809-7.30491C13.1809-8.68567 13.1488-9.63282 13.0846-10.1466 13.0203-10.6603 12.912-11.0376 12.7635-11.2865 12.5708-11.6076 12.3019-11.8564 11.9607-12.0411 11.6276-12.2217 11.2463-12.314 10.8208-12.314 9.76927-12.314 8.94645-11.9046 8.34844-11.0938 7.74639-10.2911 7.44938-9.17126 7.44938-7.73841L7.44938-0.00010275 2.42428-0.00010275 2.42428-21.8663 7.44938-21.8663 7.44938-13.4377C8.20796-14.3447 9.01067-15.0191 9.85763-15.4606 10.7125-15.8981 11.6558-16.1188 12.6833-16.1188 14.5014-16.1188 15.8822-15.5569 16.8253-14.4331 17.7645-13.3174 18.2381-11.7039 18.2381-9.58455Z" fill="#ffffff" fill-rule="nonzero" fill-opacity="1" transform="matrix(1 0 0 1.00005 452.371 690.795)"/><path d="M18.1261-7.91494 18.1261-6.47007 6.35817-6.47007C6.48661-5.29009 6.91206-4.40705 7.64255-3.82107 8.36902-3.23106 9.39248-2.93806 10.709-2.93806 11.7686-2.93806 12.8483-3.09058 13.952-3.40364 15.0638-3.72473 16.2037-4.19835 17.3716-4.83248L17.3716-0.963323C16.1836-0.513791 14.9955-0.176648 13.8074 0.0481281 12.6195 0.280919 11.4314 0.401331 10.2433 0.401331 7.39359 0.401331 5.17799-0.321125 3.59656-1.76608 2.02325-3.21095 1.23649-5.2379 1.23649-7.85083 1.23649-10.4196 2.01114-12.4344 3.5644-13.9034 5.11366-15.3805 7.24491-16.1189 9.95422-16.1189 12.4266-16.1189 14.4054-15.3684 15.8944-13.8713 17.3795-12.3822 18.126-10.3954 18.126-7.91495ZM12.9566-9.58463C12.9566-10.5359 12.6756-11.3025 12.1217-11.8805 11.5638-12.4665 10.8374-12.7635 9.93829-12.7635 8.96297-12.7635 8.17222-12.4906 7.5622-11.9447 6.95217-11.3988 6.57082-10.6121 6.42229-9.58463Z" fill="#ffffff" fill-rule="nonzero" fill-opacity="1" transform="matrix(1 0 0 1.00005 472.853 690.795)"/><path d="M2.649-20.9672 8.68556-20.9672 16.3116-6.58217 16.3116-20.9672 21.433-20.9672 21.433 0 15.3965 0 7.77047-14.385 7.77047 0 2.649 0Z" fill="#ffffff" fill-rule="nonzero" fill-opacity="1" transform="matrix(1 0 0 1.00005 502.382 690.795)"/><path d="M9.90572-12.5232C8.78996-12.5232 7.93898-12.1218 7.353-11.319 6.76299-10.5163 6.46999-9.36043 6.46999-7.85123 6.46999-6.34204 6.76299-5.1861 7.353-4.38342 7.93899-3.58871 8.78986-3.19542 9.90572-3.19542 10.9974-3.19542 11.8323-3.58876 12.4103-4.38342 12.9962-5.18615 13.2933-6.34204 13.2933-7.85123 13.2933-9.36043 12.9963-10.5164 12.4103-11.319 11.8323-12.1218 10.9974-12.5232 9.90572-12.5232ZM9.90572-16.1194C12.6109-16.1194 14.7261-15.3849 16.2474-13.92 17.7646-12.463 18.5272-10.4401 18.5272-7.85134 18.5272-5.27056 17.7646-3.24762 16.2474-1.78271 14.7261-0.325718 12.6109 0.400725 9.90572 0.400725 7.18449 0.400725 5.06126-0.325749 3.53203-1.78271 1.9988-3.24772 1.23619-5.27056 1.23619-7.85134 1.23619-10.4401 1.99879-12.4631 3.53203-13.92 5.06126-15.385 7.18449-16.1194 9.90572-16.1194Z" fill="#ffffff" fill-rule="nonzero" fill-opacity="1" transform="matrix(1 0 0 1.00005 526.46 690.795)"/><path d="M2.24766-6.13295 2.24766-15.7337 7.30491-15.7337 7.30491-14.1604C7.30491-13.3015 7.29688-12.2338 7.28886-10.9495 7.27682-9.66508 7.2728-8.80619 7.2728-8.3807 7.2728-7.10434 7.30491-6.18925 7.36913-5.63533 7.44138-5.07743 7.55376-4.67606 7.70627-4.4312 7.919-4.09806 8.19193-3.84119 8.52507-3.66057 8.85419-3.48798 9.23549-3.4037 9.66498-3.4037 10.7125-3.4037 11.5353-3.80506 12.1374-4.60783 12.7354-5.41056 13.0364-6.52637 13.0364-7.96323L13.0364-15.7337 18.0615-15.7337 18.0615-0.0006165 13.0364-0.0006165 13.0364-2.28043C12.2738-1.35729 11.4711-0.678972 10.6282-0.241463 9.78127 0.183984 8.84606 0.400725 7.81856 0.400725 6.00841 0.400725 4.62766-0.153159 3.6765-1.26896 2.72124-2.38072 2.24766-4.00232 2.24766-6.13356Z" fill="#ffffff" fill-rule="nonzero" fill-opacity="1" transform="matrix(1 0 0 1.00005 546.227 690.795)"/><path d="M18.2381-9.58463 18.2381 0 13.1809 0 13.1809-7.33697C13.1809-8.69358 13.1488-9.63282 13.0846-10.1466 13.0203-10.6603 12.912-11.0376 12.7635-11.2865 12.5708-11.6076 12.3019-11.8564 11.9607-12.0411 11.6276-12.2217 11.2463-12.314 10.8208-12.314 9.76927-12.314 8.94645-11.9046 8.34844-11.0938 7.74639-10.2911 7.44938-9.17126 7.44938-7.73841L7.44938-0.00010275 2.42428-0.00010275 2.42428-15.7332 7.44938-15.7332 7.44938-13.4373C8.20796-14.3444 9.01067-15.0188 9.85763-15.4603 10.7125-15.8978 11.6558-16.1185 12.6833-16.1185 14.5014-16.1185 15.8822-15.5566 16.8253-14.4328 17.7645-13.317 18.2381-11.7036 18.2381-9.58424Z" fill="#ffffff" fill-rule="nonzero" fill-opacity="1" transform="matrix(1 0 0 1.00005 566.709 690.795)"/><path d="M2.649-20.9672 11.6236-20.9672C14.2887-20.9672 16.3316-20.3732 17.7565-19.1851 19.1894-18.0051 19.9079-16.3193 19.9079-14.1278 19.9079-11.9324 19.1895-10.2426 17.7565-9.05454 16.3317-7.86654 14.2887-7.27244 11.6236-7.27244L8.04338-7.27244 8.04338 0.00030825 2.649 0.00030825ZM8.04338-17.0498 8.04338-11.1899 11.0456-11.1899C12.0932-11.1899 12.9-11.4468 13.4699-11.9605 14.0479-12.4743 14.3369-13.1967 14.3369-14.1279 14.3369-15.0671 14.0479-15.7896 13.4699-16.2953 12.9-16.797 12.0933-17.0499 11.0456-17.0499Z" fill="#ffffff" fill-rule="nonzero" fill-opacity="1" transform="matrix(1 0 0 1.00005 597.205 690.795)"/><path d="M14.1117-11.4474C13.6622-11.6481 13.2166-11.8006 12.7791-11.8969 12.3497-12.0013 11.9162-12.0575 11.4787-12.0575 10.1823-12.0575 9.18688-11.64 8.4926-10.8051 7.79422-9.97832 7.44907-8.79833 7.44907-7.25708L7.44907-0.000359625 2.42398-0.000359625 2.42398-15.7334 7.44907-15.7334 7.44907-13.1487C8.09126-14.1762 8.82983-14.9227 9.66457-15.3963 10.5074-15.878 11.5149-16.1188 12.6828-16.1188 12.8514-16.1188 13.0361-16.1067 13.2287-16.0867 13.4294-16.0746 13.7184-16.0465 14.0957-16.0064Z" fill="#ffffff" fill-rule="nonzero" fill-opacity="1" transform="matrix(1 0 0 1.00005 618.293 690.795)"/><path d="M9.90572-12.5232C8.78996-12.5232 7.93898-12.1218 7.353-11.319 6.76299-10.5163 6.46999-9.36043 6.46999-7.85123 6.46999-6.34204 6.76299-5.1861 7.353-4.38342 7.93899-3.58871 8.78986-3.19542 9.90572-3.19542 10.9974-3.19542 11.8323-3.58876 12.4103-4.38342 12.9962-5.18615 13.2933-6.34204 13.2933-7.85123 13.2933-9.36043 12.9963-10.5164 12.4103-11.319 11.8323-12.1218 10.9974-12.5232 9.90572-12.5232ZM9.90572-16.1194C12.6109-16.1194 14.7261-15.3849 16.2474-13.92 17.7646-12.463 18.5272-10.4401 18.5272-7.85134 18.5272-5.27056 17.7646-3.24762 16.2474-1.78271 14.7261-0.325718 12.6109 0.400725 9.90572 0.400725 7.18449 0.400725 5.06126-0.325749 3.53203-1.78271 1.9988-3.24772 1.23619-5.27056 1.23619-7.85134 1.23619-10.4401 1.99879-12.4631 3.53203-13.92 5.06126-15.385 7.18449-16.1194 9.90572-16.1194Z" fill="#ffffff" fill-rule="nonzero" fill-opacity="1" transform="matrix(1 0 0 1.00005 632.477 690.795)"/><path d="M2.42428-15.7331 7.44938-15.7331 7.44938-0.288728C7.44938 1.81847 6.93965 3.42795 5.92416 4.54371 4.91672 5.65547 3.45179 6.2134 1.52522 6.2134L-0.963282 6.2134-0.963282 2.90608-0.0802683 2.90608C0.870971 2.90608 1.5252 2.68934 1.87835 2.26389 2.23958 1.83443 2.42421 0.983523 2.42421-0.28883ZM2.42428-21.866 7.44938-21.866 7.44938-17.756 2.42428-17.756Z" fill="#ffffff" fill-rule="nonzero" fill-opacity="1" transform="matrix(1 0 0 1.00005 652.244 690.795)"/><path d="M18.1261-7.91494 18.1261-6.47007 6.35817-6.47007C6.48661-5.29009 6.91206-4.40705 7.64255-3.82107 8.36902-3.23106 9.39248-2.93806 10.709-2.93806 11.7686-2.93806 12.8483-3.09058 13.952-3.40364 15.0638-3.72473 16.2037-4.19835 17.3716-4.83248L17.3716-0.963323C16.1836-0.513791 14.9955-0.176648 13.8074 0.0481281 12.6195 0.280919 11.4314 0.401331 10.2433 0.401331 7.39359 0.401331 5.17799-0.321125 3.59656-1.76608 2.02325-3.21095 1.23649-5.2379 1.23649-7.85083 1.23649-10.4196 2.01114-12.4344 3.5644-13.9034 5.11366-15.3805 7.24491-16.1189 9.95422-16.1189 12.4266-16.1189 14.4054-15.3684 15.8944-13.8713 17.3795-12.3822 18.126-10.3954 18.126-7.91495ZM12.9566-9.58463C12.9566-10.5359 12.6756-11.3025 12.1217-11.8805 11.5638-12.4665 10.8374-12.7635 9.93829-12.7635 8.96297-12.7635 8.17222-12.4906 7.5622-11.9447 6.95217-11.3988 6.57082-10.6121 6.42229-9.58463Z" fill="#ffffff" fill-rule="nonzero" fill-opacity="1" transform="matrix(1 0 0 1.00005 662.106 690.795)"/><path d="M15.1238-15.2358 15.1238-11.1418C14.4495-11.6114 13.7632-11.9606 13.0688-12.1853 12.3824-12.4101 11.672-12.5225 10.9335-12.5225 9.52873-12.5225 8.43301-12.1091 7.64234-11.2863 6.85968-10.4715 6.47038-9.32767 6.47038-7.85054 6.47038-6.38152 6.85971-5.2376 7.64234-4.41478 8.43304-3.6 9.52873-3.19462 10.9335-3.19462 11.7122-3.19462 12.4588-3.30701 13.1652-3.53177 13.8716-3.76456 14.5218-4.11375 15.1238-4.5753L15.1238-0.465293C14.3411-0.176309 13.5424 0.0364146 12.7317 0.176894 11.9289 0.325399 11.1142 0.40166 10.2913 0.40166 7.45369 0.40166 5.23409-0.324813 3.62862-1.78178 2.03116-3.23477 1.23649-5.25761 1.23649-7.8504 1.23649-10.4512 2.0312-12.4782 3.62862-13.9352 5.23409-15.3881 7.45369-16.1186 10.2913-16.1186 11.1141-16.1186 11.929-16.0423 12.7317-15.8938 13.5344-15.7534 14.3291-15.5326 15.1238-15.2356Z" fill="#ffffff" fill-rule="nonzero" fill-opacity="1" transform="matrix(1 0 0 1.00005 681.62 690.795)"/><path d="M7.91494-20.1966 7.91494-15.7333 13.1006-15.7333 13.1006-12.137 7.91494-12.137 7.91494-5.45829C7.91494-4.7278 8.05943-4.23813 8.34842-3.98126 8.63742-3.72438 9.20735-3.59594 10.0663-3.59594L12.6511-3.59594 12.6511 0.00030825 8.34842 0.00030825C6.35764 0.00030825 4.94483-0.409089 4.10998-1.23588 3.28316-2.07072 2.8738-3.47552 2.8738-5.45829L2.8738-12.137 0.385292-12.137 0.385292-15.7333 2.8738-15.7333 2.8738-20.1966Z" fill="#ffffff" fill-rule="nonzero" fill-opacity="1" transform="matrix(1 0 0 1.00005 698.67 690.795)"/></g></g></g></svg>